<svg width="45" height="45" viewBox="0 0 45 45" fill="none" xmlns="http://www.w3.org/2000/svg">
<g clip-path="url(#clip0)">
<path d="M14.3548 35.0018C11.7602 35.0018 9.65692 37.1051 9.65692 39.6997C9.65692 42.2943 11.7603 44.3976 14.3548 44.3976C16.9495 44.3976 19.0528 42.2942 19.0528 39.6997C19.0529 37.1051 16.9495 35.0018 14.3548 35.0018ZM14.3548 42.3097C12.9134 42.3097 11.7449 41.1412 11.7449 39.6998C11.7449 38.2583 12.9134 37.0899 14.3548 37.0899C15.7963 37.0899 16.9648 38.2583 16.9648 39.6998C16.9649 41.1412 15.7963 42.3097 14.3548 42.3097Z" fill="white"/>
<path d="M34.1907 35.0018C31.5961 35.0018 29.4928 37.1051 29.4928 39.6997C29.4928 42.2943 31.5962 44.3976 34.1907 44.3976C36.7853 44.3976 38.8886 42.2942 38.8886 39.6997C38.8886 37.1051 36.7854 35.0018 34.1907 35.0018ZM34.1907 42.3097C32.7493 42.3097 31.5808 41.1412 31.5808 39.6998C31.5808 38.2583 32.7493 37.0899 34.1907 37.0899C35.6322 37.0899 36.8006 38.2583 36.8006 39.6998C36.8007 41.1412 35.6322 42.3097 34.1907 42.3097Z" fill="white"/>
<path d="M44.7872 7.59709C44.5698 7.35959 44.2724 7.21092 43.952 7.17945L9.97014 6.70966L9.03056 3.83865C8.36863 1.91942 6.57139 0.623746 4.54136 0.602264H1.04399C0.467394 0.602264 0 1.06966 0 1.64626C0 2.22286 0.467394 2.69025 1.04399 2.69025H4.54136C5.67647 2.71533 6.676 3.4442 7.04698 4.51726L13.6763 24.5097L13.1544 25.7102C12.5722 27.2115 12.747 28.9013 13.6242 30.2516C14.4929 31.5778 15.9544 32.3963 17.5392 32.444H37.8448C38.4214 32.444 38.8888 31.9766 38.8888 31.4C38.8888 30.8234 38.4214 30.356 37.8448 30.356H17.5391C16.6441 30.3336 15.8204 29.8628 15.3467 29.1032C14.8783 28.3529 14.7821 27.4285 15.0857 26.5976L15.5033 25.658L37.4794 23.3612C39.8933 23.0953 41.8789 21.3396 42.4384 18.9764L44.944 8.48432C45.0569 8.18218 44.9969 7.84237 44.7872 7.59709ZM40.4025 18.5067C40.0636 20.028 38.772 21.1501 37.2184 21.2733L15.5033 23.5179L10.6488 8.79764L42.6471 9.26744L40.4025 18.5067Z" fill="white"/>
</g>
<defs>
<clipPath id="clip0">
<rect width="45" height="45" fill="white"/>
</clipPath>
</defs>
</svg>
